<mxfile host="app.diagrams.net" agent="Mozilla/5.0 (X11; Linux x86_64) AppleWebKit/537.36 (KHTML, like Gecko) Chrome/134.0.0.0 Safari/537.36" version="26.2.13">
  <diagram id="C5RBs43oDa-KdzZeNtuy" name="Page-1">
    <mxGraphModel dx="2004" dy="355" grid="1" gridSize="10" guides="1" tooltips="1" connect="1" arrows="1" fold="1" page="1" pageScale="1" pageWidth="1654" pageHeight="2336" math="0" shadow="0">
      <root>
        <mxCell id="WIyWlLk6GJQsqaUBKTNV-0" />
        <mxCell id="WIyWlLk6GJQsqaUBKTNV-1" parent="WIyWlLk6GJQsqaUBKTNV-0" />
        <mxCell id="MPjrolfJI9ovi3jUqfJo-11" value="Robo" style="swimlane;fontStyle=1;align=center;verticalAlign=top;childLayout=stackLayout;horizontal=1;startSize=26;horizontalStack=0;resizeParent=1;resizeParentMax=0;resizeLast=0;collapsible=1;marginBottom=0;whiteSpace=wrap;html=1;" vertex="1" parent="WIyWlLk6GJQsqaUBKTNV-1">
          <mxGeometry x="284" y="25" width="260" height="560" as="geometry" />
        </mxCell>
        <mxCell id="MPjrolfJI9ovi3jUqfJo-12" value="&lt;div style=&quot;line-height: 130%;&quot;&gt;&lt;div&gt;- ambiente_atual: Ambiente&lt;/div&gt;&lt;div&gt;- nome: String&lt;/div&gt;&lt;div&gt;- posicaoX: int&lt;/div&gt;&lt;div&gt;- posicaoY: int&lt;/div&gt;&lt;div&gt;- sensor_temperatura: SensorTemperatura&lt;/div&gt;&lt;div&gt;- sensor_altitude: SensorAltitude&lt;/div&gt;&lt;div&gt;- direcao: Bussola&lt;/div&gt;&lt;div&gt;&lt;/div&gt;&lt;/div&gt;" style="text;strokeColor=none;fillColor=none;align=left;verticalAlign=top;spacingLeft=4;spacingRight=4;overflow=hidden;rotatable=0;points=[[0,0.5],[1,0.5]];portConstraint=eastwest;whiteSpace=wrap;html=1;" vertex="1" parent="MPjrolfJI9ovi3jUqfJo-11">
          <mxGeometry y="26" width="260" height="124" as="geometry" />
        </mxCell>
        <mxCell id="MPjrolfJI9ovi3jUqfJo-13" value="" style="line;strokeWidth=1;fillColor=none;align=left;verticalAlign=middle;spacingTop=-1;spacingLeft=3;spacingRight=3;rotatable=0;labelPosition=right;points=[];portConstraint=eastwest;strokeColor=inherit;" vertex="1" parent="MPjrolfJI9ovi3jUqfJo-11">
          <mxGeometry y="150" width="260" height="8" as="geometry" />
        </mxCell>
        <mxCell id="MPjrolfJI9ovi3jUqfJo-14" value="&lt;div style=&quot;line-height: 140%;&quot;&gt;+ mover(deltaX: int, deltaY: int)&lt;div&gt;+ identificar_obstaculos()&lt;/div&gt;&lt;div&gt;+ adicionar_sensorTemperatura(raio_alcance: double, modelo: String, precisao: double, temperatura_maxima: double, temperatura_minima: double)&lt;/div&gt;&lt;div&gt;+ adicionar_sensorAltitude(raio_alcance: double, modelo: String, precisao: double, altura_maxima: double&lt;/div&gt;&lt;div&gt;+ set_sensorTemperatura(novo_sensor: SensorTemperatura)&lt;/div&gt;&lt;div&gt;+ set_sensorAltitude(novo_sensor SensorAltitude)&lt;/div&gt;&lt;div&gt;+ get_posicao()&lt;/div&gt;&lt;div&gt;+ getNome()&lt;/div&gt;&lt;div&gt;+ set_ambiente(novo_ambiente: Ambiente)&lt;/div&gt;&lt;div&gt;+ get_ ambiente()&lt;/div&gt;&lt;div&gt;+ setNome(nome: String)&lt;/div&gt;&lt;div&gt;+ get_sensorTemperatura()&lt;/div&gt;&lt;div&gt;+ get_sensorAltitude()&lt;/div&gt;&lt;div&gt;+ getDirecao()&lt;/div&gt;&lt;div&gt;+ setDirecao(direcao: Bussola)&lt;/div&gt;&lt;div&gt;+ toString()&lt;/div&gt;&lt;/div&gt;" style="text;strokeColor=none;fillColor=none;align=left;verticalAlign=top;spacingLeft=4;spacingRight=4;overflow=hidden;rotatable=0;points=[[0,0.5],[1,0.5]];portConstraint=eastwest;whiteSpace=wrap;html=1;" vertex="1" parent="MPjrolfJI9ovi3jUqfJo-11">
          <mxGeometry y="158" width="260" height="402" as="geometry" />
        </mxCell>
        <mxCell id="MPjrolfJI9ovi3jUqfJo-19" value="RoboAereo" style="swimlane;fontStyle=1;align=center;verticalAlign=top;childLayout=stackLayout;horizontal=1;startSize=26;horizontalStack=0;resizeParent=1;resizeParentMax=0;resizeLast=0;collapsible=1;marginBottom=0;whiteSpace=wrap;html=1;" vertex="1" parent="WIyWlLk6GJQsqaUBKTNV-1">
          <mxGeometry x="-10" y="780" width="260" height="220" as="geometry" />
        </mxCell>
        <mxCell id="MPjrolfJI9ovi3jUqfJo-20" value="- altitude: int&lt;div&gt;- altitude_max: int&lt;/div&gt;" style="text;strokeColor=none;fillColor=none;align=left;verticalAlign=top;spacingLeft=4;spacingRight=4;overflow=hidden;rotatable=0;points=[[0,0.5],[1,0.5]];portConstraint=eastwest;whiteSpace=wrap;html=1;" vertex="1" parent="MPjrolfJI9ovi3jUqfJo-19">
          <mxGeometry y="26" width="260" height="44" as="geometry" />
        </mxCell>
        <mxCell id="MPjrolfJI9ovi3jUqfJo-21" value="" style="line;strokeWidth=1;fillColor=none;align=left;verticalAlign=middle;spacingTop=-1;spacingLeft=3;spacingRight=3;rotatable=0;labelPosition=right;points=[];portConstraint=eastwest;strokeColor=inherit;" vertex="1" parent="MPjrolfJI9ovi3jUqfJo-19">
          <mxGeometry y="70" width="260" height="8" as="geometry" />
        </mxCell>
        <mxCell id="MPjrolfJI9ovi3jUqfJo-22" value="+ subir(metros: int)&lt;div&gt;+ descer(metros: int)&lt;/div&gt;&lt;div&gt;+ adicionar_sensorAltitude(raio_alcance: double, modelo: String, precisao: double, altura_maxima: double)&lt;/div&gt;&lt;div&gt;+ get_altitude()&lt;/div&gt;&lt;div&gt;+ set_altitude(altitude: int)&lt;/div&gt;&lt;div&gt;+ get_altitude_max()&lt;/div&gt;" style="text;strokeColor=none;fillColor=none;align=left;verticalAlign=top;spacingLeft=4;spacingRight=4;overflow=hidden;rotatable=0;points=[[0,0.5],[1,0.5]];portConstraint=eastwest;whiteSpace=wrap;html=1;" vertex="1" parent="MPjrolfJI9ovi3jUqfJo-19">
          <mxGeometry y="78" width="260" height="142" as="geometry" />
        </mxCell>
        <mxCell id="MPjrolfJI9ovi3jUqfJo-23" style="edgeStyle=orthogonalEdgeStyle;rounded=0;orthogonalLoop=1;jettySize=auto;html=1;entryX=0.5;entryY=1;entryDx=0;entryDy=0;entryPerimeter=0;" edge="1" parent="WIyWlLk6GJQsqaUBKTNV-1" source="MPjrolfJI9ovi3jUqfJo-19" target="MPjrolfJI9ovi3jUqfJo-14">
          <mxGeometry relative="1" as="geometry" />
        </mxCell>
        <mxCell id="MPjrolfJI9ovi3jUqfJo-24" value="RoboVoadorExplorador&lt;div&gt;&lt;br&gt;&lt;/div&gt;" style="swimlane;fontStyle=1;align=center;verticalAlign=top;childLayout=stackLayout;horizontal=1;startSize=26;horizontalStack=0;resizeParent=1;resizeParentMax=0;resizeLast=0;collapsible=1;marginBottom=0;whiteSpace=wrap;html=1;" vertex="1" parent="WIyWlLk6GJQsqaUBKTNV-1">
          <mxGeometry x="-310" y="1160" width="290" height="390" as="geometry" />
        </mxCell>
        <mxCell id="MPjrolfJI9ovi3jUqfJo-25" value="- temperatura_atual: int&lt;div&gt;- pressao_atual: int&lt;/div&gt;&lt;div&gt;- velocidade_max: int&lt;/div&gt;&lt;div&gt;- planeta_atual: String&lt;/div&gt;&lt;div&gt;- em_missao: boolean&lt;/div&gt;&lt;div&gt;&lt;br&gt;&lt;/div&gt;" style="text;strokeColor=none;fillColor=none;align=left;verticalAlign=top;spacingLeft=4;spacingRight=4;overflow=hidden;rotatable=0;points=[[0,0.5],[1,0.5]];portConstraint=eastwest;whiteSpace=wrap;html=1;" vertex="1" parent="MPjrolfJI9ovi3jUqfJo-24">
          <mxGeometry y="26" width="290" height="94" as="geometry" />
        </mxCell>
        <mxCell id="MPjrolfJI9ovi3jUqfJo-26" value="" style="line;strokeWidth=1;fillColor=none;align=left;verticalAlign=middle;spacingTop=-1;spacingLeft=3;spacingRight=3;rotatable=0;labelPosition=right;points=[];portConstraint=eastwest;strokeColor=inherit;" vertex="1" parent="MPjrolfJI9ovi3jUqfJo-24">
          <mxGeometry y="120" width="290" height="8" as="geometry" />
        </mxCell>
        <mxCell id="MPjrolfJI9ovi3jUqfJo-27" value="+ iniciar_exploracao(pressao_atual: int, temperatura_atual: int, velocidade_atual: int, planeta: String)&lt;div&gt;+ finalizar_exploracao()&lt;/div&gt;&lt;div&gt;+ set_temperatura(nova_temperatura: int)&lt;/div&gt;&lt;div&gt;+ adicionar_sensorTemperatura(raio_alcance: double, modelo: String, precisao: double, temperatura_maxima: double, temperatura_minima: double)&lt;/div&gt;&lt;div&gt;+ set_pressao(nova_pressao: int)&lt;/div&gt;&lt;div&gt;+ set_velocidade(nova_velocidade: int)&lt;/div&gt;&lt;div&gt;+ get_temperatura()&lt;/div&gt;&lt;div&gt;+ get_pressao()&lt;/div&gt;&lt;div&gt;+ get_velocidade()&lt;/div&gt;&lt;div&gt;+ get_planeta()&lt;/div&gt;&lt;div&gt;+ status_missao()&lt;/div&gt;" style="text;strokeColor=none;fillColor=none;align=left;verticalAlign=top;spacingLeft=4;spacingRight=4;overflow=hidden;rotatable=0;points=[[0,0.5],[1,0.5]];portConstraint=eastwest;whiteSpace=wrap;html=1;" vertex="1" parent="MPjrolfJI9ovi3jUqfJo-24">
          <mxGeometry y="128" width="290" height="262" as="geometry" />
        </mxCell>
        <mxCell id="MPjrolfJI9ovi3jUqfJo-28" style="edgeStyle=orthogonalEdgeStyle;rounded=0;orthogonalLoop=1;jettySize=auto;html=1;entryX=0.623;entryY=1.007;entryDx=0;entryDy=0;entryPerimeter=0;" edge="1" parent="WIyWlLk6GJQsqaUBKTNV-1" source="MPjrolfJI9ovi3jUqfJo-24" target="MPjrolfJI9ovi3jUqfJo-22">
          <mxGeometry relative="1" as="geometry">
            <mxPoint x="130" y="1070" as="targetPoint" />
          </mxGeometry>
        </mxCell>
        <mxCell id="MPjrolfJI9ovi3jUqfJo-29" value="RoboVoadorTurista" style="swimlane;fontStyle=1;align=center;verticalAlign=top;childLayout=stackLayout;horizontal=1;startSize=26;horizontalStack=0;resizeParent=1;resizeParentMax=0;resizeLast=0;collapsible=1;marginBottom=0;whiteSpace=wrap;html=1;" vertex="1" parent="WIyWlLk6GJQsqaUBKTNV-1">
          <mxGeometry x="190" y="1160" width="290" height="230" as="geometry" />
        </mxCell>
        <mxCell id="MPjrolfJI9ovi3jUqfJo-30" value="- numero_passageiros: int&lt;div&gt;- capacidade_maxima: int&lt;/div&gt;&lt;div&gt;- cidade_turistica: String&lt;/div&gt;&lt;div&gt;- em_passeio: boolean&lt;/div&gt;" style="text;strokeColor=none;fillColor=none;align=left;verticalAlign=top;spacingLeft=4;spacingRight=4;overflow=hidden;rotatable=0;points=[[0,0.5],[1,0.5]];portConstraint=eastwest;whiteSpace=wrap;html=1;" vertex="1" parent="MPjrolfJI9ovi3jUqfJo-29">
          <mxGeometry y="26" width="290" height="64" as="geometry" />
        </mxCell>
        <mxCell id="MPjrolfJI9ovi3jUqfJo-31" value="" style="line;strokeWidth=1;fillColor=none;align=left;verticalAlign=middle;spacingTop=-1;spacingLeft=3;spacingRight=3;rotatable=0;labelPosition=right;points=[];portConstraint=eastwest;strokeColor=inherit;" vertex="1" parent="MPjrolfJI9ovi3jUqfJo-29">
          <mxGeometry y="90" width="290" height="8" as="geometry" />
        </mxCell>
        <mxCell id="MPjrolfJI9ovi3jUqfJo-32" value="+ iniciar_passeio(numero_passageiros&quot; int, cidade_turistica: String)&lt;div&gt;+ get_status()&lt;/div&gt;&lt;div&gt;+ get_destino()&lt;/div&gt;&lt;div&gt;+ get_numero_passageiros()&lt;/div&gt;&lt;div&gt;+ set_numero_passageiros(numero_passageiros: int)&lt;/div&gt;&lt;div&gt;&lt;br&gt;&lt;/div&gt;" style="text;strokeColor=none;fillColor=none;align=left;verticalAlign=top;spacingLeft=4;spacingRight=4;overflow=hidden;rotatable=0;points=[[0,0.5],[1,0.5]];portConstraint=eastwest;whiteSpace=wrap;html=1;" vertex="1" parent="MPjrolfJI9ovi3jUqfJo-29">
          <mxGeometry y="98" width="290" height="132" as="geometry" />
        </mxCell>
        <mxCell id="MPjrolfJI9ovi3jUqfJo-34" style="edgeStyle=orthogonalEdgeStyle;rounded=0;orthogonalLoop=1;jettySize=auto;html=1;entryX=0.719;entryY=1.007;entryDx=0;entryDy=0;entryPerimeter=0;" edge="1" parent="WIyWlLk6GJQsqaUBKTNV-1" source="MPjrolfJI9ovi3jUqfJo-29" target="MPjrolfJI9ovi3jUqfJo-22">
          <mxGeometry relative="1" as="geometry" />
        </mxCell>
        <mxCell id="MPjrolfJI9ovi3jUqfJo-39" style="edgeStyle=orthogonalEdgeStyle;rounded=0;orthogonalLoop=1;jettySize=auto;html=1;" edge="1" parent="WIyWlLk6GJQsqaUBKTNV-1" source="MPjrolfJI9ovi3jUqfJo-35">
          <mxGeometry relative="1" as="geometry">
            <mxPoint x="530" y="590" as="targetPoint" />
          </mxGeometry>
        </mxCell>
        <mxCell id="MPjrolfJI9ovi3jUqfJo-35" value="RoboTerrestre&lt;div&gt;&lt;br&gt;&lt;/div&gt;" style="swimlane;fontStyle=1;align=center;verticalAlign=top;childLayout=stackLayout;horizontal=1;startSize=26;horizontalStack=0;resizeParent=1;resizeParentMax=0;resizeLast=0;collapsible=1;marginBottom=0;whiteSpace=wrap;html=1;" vertex="1" parent="WIyWlLk6GJQsqaUBKTNV-1">
          <mxGeometry x="920" y="800" width="270" height="130" as="geometry" />
        </mxCell>
        <mxCell id="MPjrolfJI9ovi3jUqfJo-36" value="- velocidadeMaxima: int" style="text;strokeColor=none;fillColor=none;align=left;verticalAlign=top;spacingLeft=4;spacingRight=4;overflow=hidden;rotatable=0;points=[[0,0.5],[1,0.5]];portConstraint=eastwest;whiteSpace=wrap;html=1;" vertex="1" parent="MPjrolfJI9ovi3jUqfJo-35">
          <mxGeometry y="26" width="270" height="26" as="geometry" />
        </mxCell>
        <mxCell id="MPjrolfJI9ovi3jUqfJo-37" value="" style="line;strokeWidth=1;fillColor=none;align=left;verticalAlign=middle;spacingTop=-1;spacingLeft=3;spacingRight=3;rotatable=0;labelPosition=right;points=[];portConstraint=eastwest;strokeColor=inherit;" vertex="1" parent="MPjrolfJI9ovi3jUqfJo-35">
          <mxGeometry y="52" width="270" height="8" as="geometry" />
        </mxCell>
        <mxCell id="MPjrolfJI9ovi3jUqfJo-38" value="+ mover(deltaX: int, deltaY: int)&lt;div&gt;+ getVelocidadeMaxima()&lt;/div&gt;&lt;div&gt;+ setVelocidadeMaxima(velocidadeMaxima: int)&lt;/div&gt;" style="text;strokeColor=none;fillColor=none;align=left;verticalAlign=top;spacingLeft=4;spacingRight=4;overflow=hidden;rotatable=0;points=[[0,0.5],[1,0.5]];portConstraint=eastwest;whiteSpace=wrap;html=1;" vertex="1" parent="MPjrolfJI9ovi3jUqfJo-35">
          <mxGeometry y="60" width="270" height="70" as="geometry" />
        </mxCell>
        <mxCell id="MPjrolfJI9ovi3jUqfJo-40" value="RoboVeiculo" style="swimlane;fontStyle=1;align=center;verticalAlign=top;childLayout=stackLayout;horizontal=1;startSize=26;horizontalStack=0;resizeParent=1;resizeParentMax=0;resizeLast=0;collapsible=1;marginBottom=0;whiteSpace=wrap;html=1;" vertex="1" parent="WIyWlLk6GJQsqaUBKTNV-1">
          <mxGeometry x="710" y="1140" width="270" height="230" as="geometry" />
        </mxCell>
        <mxCell id="MPjrolfJI9ovi3jUqfJo-41" value="- passageios: int&lt;div&gt;- passageiros_maximo: int&lt;/div&gt;&lt;div&gt;- velocidade: int&lt;/div&gt;" style="text;strokeColor=none;fillColor=none;align=left;verticalAlign=top;spacingLeft=4;spacingRight=4;overflow=hidden;rotatable=0;points=[[0,0.5],[1,0.5]];portConstraint=eastwest;whiteSpace=wrap;html=1;" vertex="1" parent="MPjrolfJI9ovi3jUqfJo-40">
          <mxGeometry y="26" width="270" height="64" as="geometry" />
        </mxCell>
        <mxCell id="MPjrolfJI9ovi3jUqfJo-42" value="" style="line;strokeWidth=1;fillColor=none;align=left;verticalAlign=middle;spacingTop=-1;spacingLeft=3;spacingRight=3;rotatable=0;labelPosition=right;points=[];portConstraint=eastwest;strokeColor=inherit;" vertex="1" parent="MPjrolfJI9ovi3jUqfJo-40">
          <mxGeometry y="90" width="270" height="8" as="geometry" />
        </mxCell>
        <mxCell id="MPjrolfJI9ovi3jUqfJo-43" value="+ mudarVelocidade(velocidade: int)&lt;div&gt;+ virar(direita: boolean)&lt;/div&gt;&lt;div&gt;+ mover(frente: boolean)&lt;/div&gt;&lt;div&gt;+ passageirosSair(num_passageios: int)&lt;/div&gt;&lt;div&gt;+ passageirosEntrar(num_passageios: int)&lt;/div&gt;&lt;div&gt;+ getVelocidade()&lt;/div&gt;&lt;div&gt;+ getPassageiros()&lt;/div&gt;&lt;div&gt;+ setPassageiros(passageiros: int)&lt;/div&gt;" style="text;strokeColor=none;fillColor=none;align=left;verticalAlign=top;spacingLeft=4;spacingRight=4;overflow=hidden;rotatable=0;points=[[0,0.5],[1,0.5]];portConstraint=eastwest;whiteSpace=wrap;html=1;" vertex="1" parent="MPjrolfJI9ovi3jUqfJo-40">
          <mxGeometry y="98" width="270" height="132" as="geometry" />
        </mxCell>
        <mxCell id="MPjrolfJI9ovi3jUqfJo-44" style="edgeStyle=orthogonalEdgeStyle;rounded=0;orthogonalLoop=1;jettySize=auto;html=1;entryX=0.059;entryY=1.008;entryDx=0;entryDy=0;entryPerimeter=0;" edge="1" parent="WIyWlLk6GJQsqaUBKTNV-1" source="MPjrolfJI9ovi3jUqfJo-40" target="MPjrolfJI9ovi3jUqfJo-38">
          <mxGeometry relative="1" as="geometry" />
        </mxCell>
        <mxCell id="MPjrolfJI9ovi3jUqfJo-45" value="RoboPedestre" style="swimlane;fontStyle=1;align=center;verticalAlign=top;childLayout=stackLayout;horizontal=1;startSize=26;horizontalStack=0;resizeParent=1;resizeParentMax=0;resizeLast=0;collapsible=1;marginBottom=0;whiteSpace=wrap;html=1;" vertex="1" parent="WIyWlLk6GJQsqaUBKTNV-1">
          <mxGeometry x="1130" y="1140" width="280" height="130" as="geometry" />
        </mxCell>
        <mxCell id="MPjrolfJI9ovi3jUqfJo-46" value="- peso: int" style="text;strokeColor=none;fillColor=none;align=left;verticalAlign=top;spacingLeft=4;spacingRight=4;overflow=hidden;rotatable=0;points=[[0,0.5],[1,0.5]];portConstraint=eastwest;whiteSpace=wrap;html=1;" vertex="1" parent="MPjrolfJI9ovi3jUqfJo-45">
          <mxGeometry y="26" width="280" height="26" as="geometry" />
        </mxCell>
        <mxCell id="MPjrolfJI9ovi3jUqfJo-47" value="" style="line;strokeWidth=1;fillColor=none;align=left;verticalAlign=middle;spacingTop=-1;spacingLeft=3;spacingRight=3;rotatable=0;labelPosition=right;points=[];portConstraint=eastwest;strokeColor=inherit;" vertex="1" parent="MPjrolfJI9ovi3jUqfJo-45">
          <mxGeometry y="52" width="280" height="8" as="geometry" />
        </mxCell>
        <mxCell id="MPjrolfJI9ovi3jUqfJo-48" value="+ mover(correr: boolean, deltaX: int, deltaY: int)&lt;div&gt;+ setPeso(peso: int)&lt;/div&gt;&lt;div&gt;+ getPeso()&lt;/div&gt;" style="text;strokeColor=none;fillColor=none;align=left;verticalAlign=top;spacingLeft=4;spacingRight=4;overflow=hidden;rotatable=0;points=[[0,0.5],[1,0.5]];portConstraint=eastwest;whiteSpace=wrap;html=1;" vertex="1" parent="MPjrolfJI9ovi3jUqfJo-45">
          <mxGeometry y="60" width="280" height="70" as="geometry" />
        </mxCell>
        <mxCell id="MPjrolfJI9ovi3jUqfJo-49" style="edgeStyle=orthogonalEdgeStyle;rounded=0;orthogonalLoop=1;jettySize=auto;html=1;entryX=0.819;entryY=0.995;entryDx=0;entryDy=0;entryPerimeter=0;" edge="1" parent="WIyWlLk6GJQsqaUBKTNV-1" source="MPjrolfJI9ovi3jUqfJo-45" target="MPjrolfJI9ovi3jUqfJo-38">
          <mxGeometry relative="1" as="geometry" />
        </mxCell>
        <mxCell id="MPjrolfJI9ovi3jUqfJo-50" value="Ambiente" style="swimlane;fontStyle=1;align=center;verticalAlign=top;childLayout=stackLayout;horizontal=1;startSize=26;horizontalStack=0;resizeParent=1;resizeParentMax=0;resizeLast=0;collapsible=1;marginBottom=0;whiteSpace=wrap;html=1;" vertex="1" parent="WIyWlLk6GJQsqaUBKTNV-1">
          <mxGeometry x="900" y="25" width="340" height="480" as="geometry" />
        </mxCell>
        <mxCell id="MPjrolfJI9ovi3jUqfJo-51" value="- largura: int&lt;div&gt;- comprimento: int&lt;/div&gt;&lt;div&gt;- altura: int&lt;/div&gt;&lt;div&gt;- quantidade_robos_ativos: int&lt;/div&gt;&lt;div&gt;- quantidade_obstaculos: int&lt;/div&gt;&lt;div&gt;- listaRobos: ArrayList&amp;lt;Robo&amp;gt;&lt;/div&gt;&lt;div&gt;- obstaculos ArrayList&amp;lt;Obstaculo&amp;gt;&lt;/div&gt;" style="text;strokeColor=none;fillColor=none;align=left;verticalAlign=top;spacingLeft=4;spacingRight=4;overflow=hidden;rotatable=0;points=[[0,0.5],[1,0.5]];portConstraint=eastwest;whiteSpace=wrap;html=1;" vertex="1" parent="MPjrolfJI9ovi3jUqfJo-50">
          <mxGeometry y="26" width="340" height="114" as="geometry" />
        </mxCell>
        <mxCell id="MPjrolfJI9ovi3jUqfJo-52" value="" style="line;strokeWidth=1;fillColor=none;align=left;verticalAlign=middle;spacingTop=-1;spacingLeft=3;spacingRight=3;rotatable=0;labelPosition=right;points=[];portConstraint=eastwest;strokeColor=inherit;" vertex="1" parent="MPjrolfJI9ovi3jUqfJo-50">
          <mxGeometry y="140" width="340" height="8" as="geometry" />
        </mxCell>
        <mxCell id="MPjrolfJI9ovi3jUqfJo-53" value="+ dentroDosLimites(x: int, y: int, z: int)&lt;div&gt;+ adicionarRobo(robo: Robo)&lt;/div&gt;&lt;div&gt;+ removerRobo(robo: Robo)&lt;/div&gt;&lt;div&gt;+ adicionarObstaculo(posX: int, posY: int, tipoObstaculo: TipoObstaculo)&lt;/div&gt;&lt;div&gt;+adicionarObstaculo(posX1: int, posY1: int, posX2: int, posY2: int, tipoObstaculo: TipoObstaculo)&lt;/div&gt;&lt;div&gt;+adicionarObstaculo(posX1: int, posY1: int, posX2: int, posY2: int, altura: int, tipoObstaculo: TIpoObstaculo)&lt;/div&gt;&lt;div&gt;+removerObstaculo(posX: int, posY: int)&lt;/div&gt;&lt;div&gt;+ get_quantidade_obstaculos()&lt;/div&gt;&lt;div&gt;+ get_robos_ativos()&lt;/div&gt;&lt;div&gt;+ getLargura()&lt;/div&gt;&lt;div&gt;+ setLargura(largura: int)&lt;/div&gt;&lt;div&gt;+ get_comprimento()&lt;/div&gt;&lt;div&gt;+ set_comprimento(novo_comprimento: int)&lt;/div&gt;&lt;div&gt;+ getAltura()&lt;/div&gt;&lt;div&gt;+ setAltura(altura: int)&lt;/div&gt;&lt;div&gt;+ getListaRobos()&lt;/div&gt;&lt;div&gt;+ getObstaculos()&lt;/div&gt;&lt;div&gt;&lt;br&gt;&lt;/div&gt;" style="text;strokeColor=none;fillColor=none;align=left;verticalAlign=top;spacingLeft=4;spacingRight=4;overflow=hidden;rotatable=0;points=[[0,0.5],[1,0.5]];portConstraint=eastwest;whiteSpace=wrap;html=1;" vertex="1" parent="MPjrolfJI9ovi3jUqfJo-50">
          <mxGeometry y="148" width="340" height="332" as="geometry" />
        </mxCell>
        <mxCell id="MPjrolfJI9ovi3jUqfJo-55" value="&lt;div&gt;&lt;br&gt;&lt;/div&gt;&lt;div&gt;&lt;br&gt;&lt;/div&gt;" style="endArrow=open;html=1;endSize=12;startArrow=diamondThin;startSize=14;startFill=0;edgeStyle=orthogonalEdgeStyle;rounded=0;exitX=1;exitY=0.5;exitDx=0;exitDy=0;entryX=0;entryY=0.5;entryDx=0;entryDy=0;" edge="1" parent="WIyWlLk6GJQsqaUBKTNV-1" source="MPjrolfJI9ovi3jUqfJo-14" target="MPjrolfJI9ovi3jUqfJo-53">
          <mxGeometry x="-0.0025" relative="1" as="geometry">
            <mxPoint x="860" y="190" as="sourcePoint" />
            <mxPoint x="620" y="230" as="targetPoint" />
            <mxPoint as="offset" />
          </mxGeometry>
        </mxCell>
        <mxCell id="MPjrolfJI9ovi3jUqfJo-56" value="1" style="edgeLabel;resizable=0;html=1;align=left;verticalAlign=top;" connectable="0" vertex="1" parent="MPjrolfJI9ovi3jUqfJo-55">
          <mxGeometry x="-1" relative="1" as="geometry" />
        </mxCell>
        <mxCell id="MPjrolfJI9ovi3jUqfJo-57" value="0..*" style="edgeLabel;resizable=0;html=1;align=right;verticalAlign=top;" connectable="0" vertex="1" parent="MPjrolfJI9ovi3jUqfJo-55">
          <mxGeometry x="1" relative="1" as="geometry" />
        </mxCell>
        <mxCell id="MPjrolfJI9ovi3jUqfJo-59" value="Sensor" style="swimlane;fontStyle=1;align=center;verticalAlign=top;childLayout=stackLayout;horizontal=1;startSize=26;horizontalStack=0;resizeParent=1;resizeParentMax=0;resizeLast=0;collapsible=1;marginBottom=0;whiteSpace=wrap;html=1;" vertex="1" parent="WIyWlLk6GJQsqaUBKTNV-1">
          <mxGeometry x="-150" y="250" width="240" height="200" as="geometry" />
        </mxCell>
        <mxCell id="MPjrolfJI9ovi3jUqfJo-60" value="- raio_alcance: double&lt;div&gt;- modelo: String&lt;/div&gt;&lt;div&gt;- &lt;u&gt;quantidade_sensores: int&lt;/u&gt;&lt;/div&gt;" style="text;strokeColor=none;fillColor=none;align=left;verticalAlign=top;spacingLeft=4;spacingRight=4;overflow=hidden;rotatable=0;points=[[0,0.5],[1,0.5]];portConstraint=eastwest;whiteSpace=wrap;html=1;" vertex="1" parent="MPjrolfJI9ovi3jUqfJo-59">
          <mxGeometry y="26" width="240" height="74" as="geometry" />
        </mxCell>
        <mxCell id="MPjrolfJI9ovi3jUqfJo-61" value="" style="line;strokeWidth=1;fillColor=none;align=left;verticalAlign=middle;spacingTop=-1;spacingLeft=3;spacingRight=3;rotatable=0;labelPosition=right;points=[];portConstraint=eastwest;strokeColor=inherit;" vertex="1" parent="MPjrolfJI9ovi3jUqfJo-59">
          <mxGeometry y="100" width="240" height="8" as="geometry" />
        </mxCell>
        <mxCell id="MPjrolfJI9ovi3jUqfJo-62" value="+ monitorar()&lt;div&gt;+ get_quantidadeSensores()&lt;/div&gt;&lt;div&gt;+ get_raioAlcance()&lt;/div&gt;&lt;div&gt;+ get_modelo()&lt;/div&gt;&lt;div&gt;+ toString()&lt;/div&gt;" style="text;strokeColor=none;fillColor=none;align=left;verticalAlign=top;spacingLeft=4;spacingRight=4;overflow=hidden;rotatable=0;points=[[0,0.5],[1,0.5]];portConstraint=eastwest;whiteSpace=wrap;html=1;" vertex="1" parent="MPjrolfJI9ovi3jUqfJo-59">
          <mxGeometry y="108" width="240" height="92" as="geometry" />
        </mxCell>
        <mxCell id="MPjrolfJI9ovi3jUqfJo-64" value="0..*" style="endArrow=open;html=1;endSize=12;startArrow=diamondThin;startSize=14;startFill=1;edgeStyle=orthogonalEdgeStyle;align=left;verticalAlign=bottom;rounded=0;exitX=-0.002;exitY=0.459;exitDx=0;exitDy=0;exitPerimeter=0;" edge="1" parent="WIyWlLk6GJQsqaUBKTNV-1" source="MPjrolfJI9ovi3jUqfJo-14" target="MPjrolfJI9ovi3jUqfJo-60">
          <mxGeometry x="-0.7812" y="-8" relative="1" as="geometry">
            <mxPoint x="214.92000000000004" y="380.004" as="sourcePoint" />
            <mxPoint x="210" y="330" as="targetPoint" />
            <Array as="points">
              <mxPoint x="215" y="367" />
              <mxPoint x="215" y="330" />
            </Array>
            <mxPoint as="offset" />
          </mxGeometry>
        </mxCell>
        <mxCell id="MPjrolfJI9ovi3jUqfJo-67" value="1..*" style="edgeLabel;html=1;align=center;verticalAlign=middle;resizable=0;points=[];labelBackgroundColor=none;" vertex="1" connectable="0" parent="MPjrolfJI9ovi3jUqfJo-64">
          <mxGeometry x="0.8711" y="-1" relative="1" as="geometry">
            <mxPoint x="15" y="-9" as="offset" />
          </mxGeometry>
        </mxCell>
      </root>
    </mxGraphModel>
  </diagram>
</mxfile>
